<svg width="56" height="64" viewBox="0 0 56 64" fill="none" xmlns="http://www.w3.org/2000/svg">
<path d="M28.7185 29.708H26.7372V43.5726H28.7185V29.708ZM39.5215 44.991L53.209 30.4479C52.7211 30.5455 52.2104 30.525 51.7248 30.3526L50.8691 30.0439L38.0849 43.6293C38.423 43.7098 38.7339 43.878 38.9862 44.1171C39.2384 44.3562 39.4231 44.6577 39.5215 44.991ZM17.3732 43.6293L4.58664 30.0439L3.7333 30.3526C3.24535 30.525 2.7347 30.5455 2.24902 30.4479L15.9343 44.991C16.0329 44.6574 16.2179 44.3558 16.4706 44.1166C16.7233 43.8775 17.0346 43.7094 17.3732 43.6293Z" fill="white"/>
<path d="M39.2805 39.9443C40.5583 39.9443 41.594 40.9771 41.594 42.2549V60.7402C41.5939 62.0156 40.5588 63.0507 39.2834 63.0508H16.175C15.5627 63.0496 14.9753 62.8051 14.5422 62.3721C14.1095 61.9391 13.8657 61.3524 13.8645 60.7402V42.2549C13.8645 40.9771 14.8996 39.9443 16.175 39.9443H39.2805ZM26.7278 43.334C22.3677 43.7137 19.2219 47.1319 18.9973 51.5693C18.9904 51.7006 18.9913 51.8609 18.9973 51.9912C19.0509 53.0827 19.2845 54.1891 19.718 55.1934C20.4409 56.867 21.7161 58.296 23.2913 59.1699C23.3241 59.1523 23.2911 59.1321 23.2825 59.1162C22.3895 57.4609 22.2708 55.7133 23.2727 54.0615C24.0207 52.8282 25.0545 52.1966 26.4114 51.8574C26.4321 51.8521 26.4732 51.8512 26.468 51.8213H23.384C23.3486 50.2514 24.2947 48.787 25.6741 48.1289C27.9473 47.0455 30.6433 48.3401 31.26 50.8076C31.3205 51.0509 31.4019 51.5059 31.3743 51.748C31.3708 51.7789 31.3714 51.8028 31.342 51.8213H28.1653C28.1611 51.852 28.2023 51.8513 28.2239 51.8574C28.5623 51.9552 28.8629 52.0118 29.1936 52.1562C31.8399 53.3078 32.8601 56.585 31.3616 59.1055C31.3489 59.1264 31.2183 59.2785 31.301 59.2539C33.6441 57.9721 35.2894 55.5894 35.635 52.8867C36.3165 47.5586 31.9791 42.8769 26.7278 43.334Z" fill="white"/>
<path d="M27.7291 0C27.7291 0 13.2495 3.62444 11.974 28.1649C8.72407 28.444 6.77228 29.2701 3.73565 30.3527C3.31474 30.5049 2.8632 30.5529 2.41971 30.4924C1.97622 30.4319 1.55401 30.2648 1.18923 30.0054C0.821893 29.7503 0.521832 29.4099 0.314725 29.0135C0.107619 28.6171 -0.000369216 28.1764 9.48445e-07 27.7291C9.48445e-07 12.4189 12.4189 0 27.7291 0ZM55.4582 27.7291C55.4582 28.6392 55.0134 29.4925 54.269 30.0054C53.9045 30.2645 53.4827 30.4313 53.0396 30.4918C52.5965 30.5523 52.1454 30.5045 51.7248 30.3527C48.6882 29.2678 46.7342 28.444 43.4865 28.1649C42.2087 3.62444 27.7291 0 27.7291 0C43.0394 0 55.4582 12.4189 55.4582 27.7291Z" fill="white"/>
<path d="M43.4863 28.1649C37.8374 27.6769 34.3628 29.3178 29.0657 31.2151C28.2033 31.5215 27.2546 31.5215 26.3922 31.2151C21.0951 29.3178 17.6205 27.6769 11.9739 28.1649C13.2494 3.62444 27.7289 0 27.7289 0C27.7289 0 42.2085 3.62444 43.4863 28.1649Z" fill="white"/>
</svg>
