<svg width="62" height="90" viewBox="0 0 62 90" fill="none" xmlns="http://www.w3.org/2000/svg">
<path d="M37.2988 40.5442C37.312 40.7911 37.3104 41.0926 37.2988 41.3378C37.1963 43.3903 36.7498 45.471 35.9196 47.3596C34.5355 50.5072 32.0929 53.1942 29.0766 54.8376C29.0137 54.8045 29.0782 54.7663 29.0948 54.7365C30.8047 51.6237 31.0313 48.337 29.113 45.2308C27.6809 42.9116 25.7014 41.7238 23.1034 41.086C23.0637 41.076 22.9844 41.0744 22.9943 41.018H28.8996C28.9674 38.0659 27.1566 35.3126 24.5157 34.0751C20.1631 32.0375 15.0019 34.4711 13.8212 39.1113C13.7054 39.5685 13.5483 40.425 13.6013 40.8805C13.6079 40.9385 13.6062 40.9833 13.6624 41.018H19.7448C19.753 41.076 19.6753 41.0744 19.634 41.086C18.9857 41.2698 18.4102 41.3759 17.7768 41.6476C12.7099 43.8128 10.7569 49.9754 13.6261 54.715C13.6492 54.7531 13.9006 55.0413 13.7418 54.995C9.25532 52.5846 6.10502 48.1034 5.44354 43.0209C4.13877 33.0016 12.4437 24.1984 22.4982 25.0581C30.846 25.7721 36.8688 32.1998 37.2988 40.5442Z" fill="white"/>
<path d="M26.4601 79.3089H19.845V59.4639H0V89.1639H46.3051V59.4639H26.4601V79.3089Z" fill="white"/>
<path d="M41.5449 18.7002C40.6053 12.0776 41.251 4.98237 50.876 8.32422C54.707 9.5976 56.6368 11.4382 57.2041 13.3398C58.1493 16.5094 55.3246 19.7685 52.4053 22.71C56.4587 23.5719 60.6063 24.7507 61.5518 27.9199C62.1189 29.8217 61.5128 32.4191 59.0049 35.583C52.6882 43.3336 48.3569 38.068 45.5156 32.0127L51.0928 50.7129L41.584 53.5488L26.46 2.83594L35.9688 0L41.5449 18.7002ZM48.7578 25.5225C48.2184 26.0285 47.6788 26.5346 47.0449 26.7236C49.2524 32.9682 51.5603 36.0764 52.7002 36.4268C53.4286 36.5545 54.6018 35.8595 56.3477 33.6133C58.5386 30.5439 58.4773 29.1812 58.3828 28.8643C57.9096 27.2797 53.7619 26.1008 48.7578 25.5225ZM36.2461 24.0762L38.1367 30.416L44.4756 28.5254L42.5859 22.1865L36.2461 24.0762ZM49.7314 11.4268C47.0401 10.5036 45.6771 10.5643 45.1377 11.0703C44.3759 11.9879 44.1482 15.8527 45.7217 22.2861C46.3556 22.0971 47.0841 22.2246 47.8125 22.3525C51.6826 19.1275 54.5078 15.8689 54.0352 14.2842C53.9402 13.9667 53.244 12.7942 49.7314 11.4268Z" fill="white"/>
</svg>
