<svg width="45" height="63" viewBox="0 0 45 63" fill="none" xmlns="http://www.w3.org/2000/svg">
<path d="M44.4342 41.987C44.4526 42.3306 44.4503 42.7501 44.4342 43.0914C44.2919 45.9479 43.6719 48.8435 42.5192 51.4718C40.5973 55.8522 37.2057 59.5917 33.0174 61.8787C32.9302 61.8326 33.0197 61.7796 33.0427 61.7381C35.417 57.4061 35.7316 52.832 33.068 48.5092C31.0794 45.2816 28.3309 43.6285 24.7235 42.7409C24.6684 42.7271 24.5582 42.7248 24.572 42.6464H32.7718C32.8659 38.538 30.3515 34.7063 26.6845 32.9841C20.6408 30.1484 13.4743 33.5351 11.8348 39.9928C11.6741 40.6291 11.456 41.821 11.5295 42.455C11.5386 42.5357 11.5363 42.598 11.6144 42.6464H20.0599C20.0714 42.7271 19.9635 42.7248 19.906 42.7409C19.0059 42.9968 18.2068 43.1444 17.3274 43.5225C10.2918 46.5357 7.57996 55.1121 11.5639 61.7081C11.596 61.7611 11.9451 62.1623 11.7246 62.0977C5.495 58.7433 1.1207 52.5069 0.202218 45.4337C-1.6095 31.4902 9.9221 19.2389 23.8831 20.4354C35.4744 21.4291 43.8372 30.3743 44.4342 41.987Z" fill="white"/>
<path d="M7.74194 15.743C7.74194 17.1238 8.86123 18.243 10.2419 18.243C11.6227 18.243 12.7419 17.1238 12.7419 15.743H10.2419H7.74194ZM34.3867 31.1688H36.8867V15.0724H34.3867H31.8867V31.1688H34.3867ZM10.2419 15.0724H7.74194V15.743H10.2419H12.7419V15.0724H10.2419ZM22.3143 3V0.5C14.2662 0.5 7.74194 7.02427 7.74194 15.0724H10.2419H12.7419C12.7419 9.78569 17.0276 5.5 22.3143 5.5V3ZM34.3867 15.0724H36.8867C36.8867 7.02428 30.3624 0.5 22.3143 0.5V3V5.5C27.601 5.5 31.8867 9.7857 31.8867 15.0724H34.3867Z" fill="white"/>
</svg>
