<svg width="64" height="104" viewBox="0 0 64 104" fill="none" xmlns="http://www.w3.org/2000/svg">
<path d="M22.632 76.8284H24.672V94.1084H22.584L12.984 80.0684H12.696V94.1084H10.68V76.8284H12.744L22.344 90.8684H22.632V76.8284ZM28.0238 76.8284H30.0158V94.1084H28.0238V76.8284ZM29.2478 76.8284H39.7358V78.6284H29.2478V76.8284ZM29.2478 85.5164H38.6558V87.2204H29.2478V85.5164ZM46.3879 77.6444H48.4039V94.1084H46.3879V77.6444ZM40.4359 78.6284V76.8284H54.3799V78.6284H40.4359Z" fill="white"/>
<path d="M63.2106 30.714C63.2367 31.2017 63.2335 31.7975 63.2106 32.2819C63.008 36.3376 62.1258 40.4489 60.4855 44.1805C57.7505 50.3998 52.9243 55.7091 46.9643 58.9563C46.8401 58.8908 46.9676 58.8155 47.0002 58.7566C50.3789 52.606 50.8266 46.1117 47.0362 39.9742C44.2065 35.3916 40.2952 33.0446 35.1619 31.7844C35.0835 31.7647 34.9266 31.7614 34.9462 31.6502H46.6147C46.7486 25.8171 43.1707 20.3768 37.9524 17.9316C29.3522 13.9054 19.1541 18.7139 16.8211 27.8825C16.5923 28.786 16.2819 30.4783 16.3865 31.3785C16.3996 31.493 16.3963 31.5814 16.5074 31.6502H28.5255C28.5418 31.7647 28.3882 31.7614 28.3065 31.7844C27.0257 32.1477 25.8885 32.3572 24.6371 32.894C14.6253 37.1723 10.7663 49.349 16.4355 58.714C16.4812 58.7893 16.9779 59.3589 16.6642 59.2672C7.79933 54.5045 1.57463 45.6502 0.267609 35.6076C-2.3105 15.8105 14.0992 -1.58398 33.9659 0.114883C50.4606 1.52569 62.361 14.2262 63.2106 30.714Z" fill="white"/>
</svg>
