<svg width="91" height="74" viewBox="0 0 91 74" fill="none" xmlns="http://www.w3.org/2000/svg">
<path d="M57.4195 18.4555V16.4155H61.0795V12.3755H63.3995V16.4155H67.0395V18.4555H63.3995V22.4955H61.0795V18.4555H57.4195ZM71.3815 11.6755H70.9615L68.2415 13.4155V10.8755L71.5215 8.75547H74.4015V22.8555H71.3815V11.6755Z" fill="white"/>
<g clip-path="url(#clip0_158_173)">
<path d="M64.3077 48.7442C64.3303 49.1658 64.3275 49.6806 64.3077 50.0993C64.1327 53.6043 63.3702 57.1575 61.9525 60.3824C59.5888 65.7574 55.4178 70.3459 50.2668 73.1522C50.1595 73.0956 50.2696 73.0305 50.2979 72.9796C53.2179 67.6641 53.6048 62.0515 50.3289 56.7473C47.8834 52.7868 44.503 50.7584 40.0665 49.6693C39.9987 49.6523 39.8632 49.6495 39.8801 49.5533H49.9646C50.0804 44.5122 46.9881 39.8105 42.4782 37.6973C35.0454 34.2177 26.2317 38.3734 24.2154 46.2972C24.0177 47.078 23.7494 48.5406 23.8398 49.3185C23.8511 49.4175 23.8483 49.4939 23.9443 49.5533H34.331C34.3451 49.6523 34.2124 49.6495 34.1418 49.6693C33.0348 49.9833 32.052 50.1644 30.9704 50.6283C22.3177 54.3257 18.9825 64.8493 23.8822 72.9428C23.9217 73.0079 24.351 73.5001 24.0799 73.4209C16.4183 69.3049 11.0386 61.6526 9.90902 52.9735C7.68088 35.8642 21.863 20.8313 39.0329 22.2995C53.2885 23.5187 63.5735 34.495 64.3077 48.7442Z" fill="white"/>
</g>
<path d="M3.3794 25.5919L4.93343 22.2002L6.47513 25.5919L9.86686 27.1336L6.47513 28.6877L4.93343 32.0671L3.3794 28.6877L0 27.1336L3.3794 25.5919Z" fill="white"/>
<path d="M22.4039 7.6314L25.9005 0L29.3693 7.6314L37.0007 11.1002L29.3693 14.5968L25.9005 22.2004L22.4039 14.5968L14.8003 11.1002L22.4039 7.6314Z" fill="white"/>
<defs>
<clipPath id="clip0_158_173">
<rect width="54.6472" height="51.2318" fill="white" transform="translate(9.67725 22.2002)"/>
</clipPath>
</defs>
</svg>
