<svg width="26" height="64" viewBox="0 0 26 64" fill="none" xmlns="http://www.w3.org/2000/svg">
<path d="M0.106956 11.2408C0.0993946 11.4384 0.100256 11.6813 0.112737 11.8801C0.406334 16.7156 3.03149 20.7303 6.99456 22.7932L7.31111 54.2555C7.35499 58.6166 9.3358 63.8934 13.6961 63.7953C17.9219 63.7002 19.7098 58.5886 19.6673 54.3619L19.3483 22.6624C23.7722 20.1725 26.5831 15.1216 25.8189 9.65219C25.2477 5.56225 22.6711 1.97493 19.0305 0.0657374C18.902 0.0295255 19.1071 0.259927 19.126 0.290457C21.4775 4.088 19.9453 9.06727 15.8693 10.8487C15.3598 11.0722 14.8959 11.1618 14.3737 11.3147C14.3404 11.3243 14.2777 11.3236 14.2848 11.3702L19.1964 11.3258C19.2421 11.3534 19.2411 11.3895 19.2468 11.4361C19.2929 11.8028 19.1723 12.494 19.0821 12.8632C18.1624 16.6102 14.0123 18.6085 10.4826 16.9987C8.34097 16.0209 6.85863 13.8159 6.89188 11.4371L11.6607 11.394C11.6683 11.3485 11.6041 11.3477 11.572 11.34C9.46944 10.8451 7.86229 9.90264 6.68892 8.04455C5.11721 5.55605 5.27622 2.90637 6.63437 0.38604C6.64751 0.361895 6.69931 0.330736 6.64832 0.304501C4.22449 1.65052 2.27165 3.83322 1.17683 6.3792C0.520206 7.90679 0.174801 9.58639 0.106956 11.2408Z" fill="white"/>
</svg>
