<svg width="65" height="64" viewBox="0 0 65 64" fill="none" xmlns="http://www.w3.org/2000/svg">
<path d="M51.5758 31.8864C51.5914 32.172 51.5894 32.5209 51.5758 32.8045C51.455 35.1794 50.9292 37.5868 49.9515 39.7719C48.3215 43.4137 45.4449 46.5227 41.8926 48.4241C41.8186 48.3858 41.8946 48.3417 41.9141 48.3072C43.9278 44.7056 44.1946 40.9028 41.9355 37.3089C40.2489 34.6255 37.9177 33.2511 34.8581 32.5132C34.8114 32.5017 34.7179 32.4998 34.7296 32.4346H41.6843C41.7641 29.019 39.6315 25.8333 36.5213 24.4015C31.3954 22.0439 25.3171 24.8596 23.9266 30.2284C23.7903 30.7574 23.6053 31.7484 23.6676 32.2755C23.6754 32.3426 23.6734 32.3944 23.7396 32.4346H30.9027C30.9124 32.5017 30.8209 32.4998 30.7722 32.5132C30.0088 32.726 29.331 32.8486 28.5851 33.163C22.6179 35.6682 20.3178 42.7985 23.6968 48.2823C23.7241 48.3264 24.0201 48.6599 23.8331 48.6062C18.5495 45.8173 14.8394 40.6325 14.0604 34.752C12.5238 23.1595 22.3043 12.9738 34.1453 13.9686C43.9765 14.7948 51.0694 22.2317 51.5758 31.8864Z" fill="white"/>
<path d="M31.1312 44.5889C31.1312 44.2309 31.2778 43.8875 31.5387 43.6344C31.7997 43.3812 32.1535 43.239 32.5225 43.239C32.8915 43.239 33.2454 43.3812 33.5063 43.6344C33.7672 43.8875 33.9138 44.2309 33.9138 44.5889V50.6228L35.5973 50.7982L42.4702 53.7544C43.2076 54.0784 43.6528 54.7938 43.6528 55.5767V61.4621C43.611 62.569 42.7067 63.4464 41.5659 63.4869H32.5225C31.9938 63.4869 31.493 63.2844 31.1312 62.9065L24.314 57.2371L25.3435 56.1977C25.6079 55.9142 25.9835 55.7657 26.3731 55.7657H26.6791L31.1312 58.0875V44.5889ZM32.5225 39.1895C33.9985 39.1895 35.414 39.7583 36.4577 40.7709C37.5013 41.7835 38.0876 43.1569 38.0876 44.5889C38.0876 46.6137 36.9746 48.328 35.3051 49.2594V47.6126C36.1538 46.8702 36.6964 45.7903 36.6964 44.5889C36.6964 43.5149 36.2566 42.4849 35.4739 41.7254C34.6911 40.966 33.6295 40.5393 32.5225 40.5393C31.4156 40.5393 30.3539 40.966 29.5712 41.7254C28.7884 42.4849 28.3487 43.5149 28.3487 44.5889C28.3487 45.7903 28.8913 46.8702 29.74 47.6126V49.2594C28.0704 48.328 26.9574 46.6137 26.9574 44.5889C26.9574 43.1569 27.5437 41.7835 28.5874 40.7709C29.631 39.7583 31.0466 39.1895 32.5225 39.1895Z" fill="white"/>
<path d="M17.9733 51.5863C11.8913 47.1263 7.95044 39.9813 7.95044 31.9277C7.95044 18.4113 19.0508 7.4541 32.7438 7.4541C46.4368 7.4541 57.5371 18.4113 57.5371 31.9277C57.5371 39.9813 53.5963 47.1263 47.5143 51.5863" stroke="white" stroke-opacity="0.36" stroke-width="2" stroke-linecap="round"/>
<path d="M14.4283 57.5371C6.88663 51.9245 2 42.9331 2 32.7983C2 15.7889 15.7644 2 32.7437 2C49.723 2 63.4875 15.7889 63.4875 32.7983C63.4875 42.9331 58.6009 51.9245 51.0592 57.5371" stroke="white" stroke-opacity="0.6" stroke-width="3" stroke-linecap="round"/>
</svg>
