<svg width="68" height="69" viewBox="0 0 68 69" fill="none" xmlns="http://www.w3.org/2000/svg">
<path d="M57.3127 34.2631C57.3323 34.6295 57.3298 35.0771 57.3127 35.4411C57.1608 38.4881 56.4993 41.5769 55.2694 44.3805C53.2188 49.0531 49.6001 53.0421 45.1314 55.4817C45.0383 55.4325 45.1338 55.3759 45.1583 55.3316C47.6916 50.7107 48.0272 45.8315 45.1853 41.2204C43.0636 37.7774 40.1309 36.0141 36.282 35.0673C36.2232 35.0525 36.1056 35.05 36.1203 34.9664H44.8692C44.9697 30.584 42.2869 26.4967 38.3743 24.6596C31.9259 21.6347 24.2795 25.2474 22.5302 32.1358C22.3587 32.8146 22.126 34.086 22.2044 34.7623C22.2142 34.8484 22.2117 34.9148 22.295 34.9664H31.3061C31.3183 35.0525 31.2032 35.05 31.1419 35.0673C30.1815 35.3402 29.329 35.4976 28.3906 35.9009C20.8839 39.1152 17.9904 48.2637 22.2411 55.2997C22.2754 55.3562 22.6478 55.7841 22.4126 55.7153C15.7658 52.137 11.0986 45.4847 10.1186 37.9397C8.18558 23.066 20.4894 9.99745 35.3853 11.2738C47.7528 12.3338 56.6757 21.8757 57.3127 34.2631Z" fill="white"/>
<path d="M33.8115 0C52.4848 2.14776e-05 67.6228 15.3395 67.623 34.2617C67.623 53.1841 52.485 68.5244 33.8115 68.5244C15.1381 68.5244 0 53.1842 0 34.2617C0.000201413 15.3395 15.1382 0 33.8115 0ZM33.8115 4.50781C17.628 4.50786 4.50898 17.8293 4.50879 34.2617C4.50879 50.6943 17.6279 64.0156 33.8115 64.0156C49.9952 64.0156 63.1143 50.6944 63.1143 34.2617C63.1141 17.8292 49.9951 4.50781 33.8115 4.50781Z" fill="#D9D9D9"/>
</svg>
