<?xml version="1.0" encoding="UTF-8"?>
<svg id="Layer_1" data-name="Layer 1" xmlns="http://www.w3.org/2000/svg" xmlns:xlink="http://www.w3.org/1999/xlink" viewBox="0 0 500 500">
  <defs>
    <style>
      .cls-1 {
        fill: url(#linear-gradient);
      }
    </style>
    <linearGradient id="linear-gradient" x1="46.24" y1="250" x2="453.76" y2="250" gradientUnits="userSpaceOnUse">
      <stop offset="0" stop-color="#000"/>
      <stop offset=".63" stop-color="#0b1550"/>
      <stop offset="1" stop-color="#0038ff"/>
    </linearGradient>
  </defs>
  <path class="cls-1" d="M453.64,256.92c.17,3.14.15,6.97,0,10.09-1.31,26.09-6.99,52.54-17.56,76.55-17.63,40.01-48.73,74.17-87.15,95.06-.8-.42.02-.91.23-1.28,21.78-39.57,24.66-81.35.23-120.84-18.24-29.48-43.45-44.58-76.53-52.69-.51-.13-1.52-.15-1.39-.86h75.2c.86-37.53-22.2-72.53-55.83-88.26-55.43-25.9-121.16,5.03-136.19,64.02-1.47,5.81-3.47,16.7-2.8,22.49.08.74.06,1.31.78,1.75h77.46c.11.74-.88.72-1.41.86-8.26,2.34-15.58,3.69-23.65,7.14-64.53,27.53-89.4,105.87-52.86,166.12.29.48,3.5,4.15,1.47,3.56-57.14-30.64-97.25-87.61-105.68-152.22C31.35,161.03,137.11,49.12,265.16,60.05c106.31,9.08,183.01,90.79,188.48,196.87Z"/>
</svg>